Coordinates
version=1
nRows=10
nColumns=40
inDegrees=yes

Units are S.I. units (second, meters, Newtons, ...)
Angles are in degrees.

endheader
time	pelvis_tilt	pelvis_list	pelvis_rotation	pelvis_tx	pelvis_ty	pelvis_tz	hip_flexion_r	hip_adduction_r	hip_rotation_r	knee_angle_r	knee_angle_r_beta	ankle_angle_r	subtalar_angle_r	mtp_angle_r	hip_flexion_l	hip_adduction_l	hip_rotation_l	knee_angle_l	knee_angle_l_beta	ankle_angle_l	subtalar_angle_l	mtp_angle_l	lumbar_extension	lumbar_bending	lumbar_rotation	arm_flex_r	arm_add_r	arm_rot_r	elbow_flex_r	pro_sup_r	wrist_flex_r	wrist_dev_r	arm_flex_l	arm_add_l	arm_rot_l	elbow_flex_l	pro_sup_l	wrist_flex_l	wrist_dev_l
      1.81000000	     -6.32879134	     -6.29164491	      3.02821519	      1.06034628	      0.93049628	      0.49974098	     14.18708295	      4.30593763	    -16.67887517	     13.14697617	     13.14697617	      7.50422012	      3.92556134	     -2.57698757	     38.60354155	    -11.78048094	      6.61922187	     70.18264142	     70.18264142	      5.42767330	    -17.85155487	      9.06112274	    -12.35818175	      5.57028495	      4.14543206	     10.53323771	    -16.00864910	     -2.11996663	     51.63842775	     45.09450904	      0.00000000	      0.00000000	      5.65659670	     -7.46119813	     -3.77211800	     44.60749900	     45.18670854	      0.00000000	      0.00000000
      1.82192857	     -6.40473887	     -6.24552449	      3.25941178	      1.05826995	      0.93078072	      0.50048285	     13.48088390	      4.41038366	    -16.76120125	     12.51835944	     12.51835944	      7.65405501	      4.11639936	     -2.65197048	     40.09883031	    -11.70642226	      6.38814957	     68.34998702	     68.34998702	      5.68485498	    -18.14291412	      9.35474068	    -12.37152302	      5.37653448	      3.69867618	     13.22095009	    -16.06101001	     -2.20890089	     53.51373844	     45.05172187	      0.00000000	      0.00000000	      4.20907082	     -7.60173794	     -3.64568557	     42.36605308	     45.17162106	      0.00000000	      0.00000000
      1.83385714	     -6.46215013	     -6.20748946	      3.43907901	      1.05614549	      0.93091958	      0.50124462	     12.90593103	      4.50612833	    -16.71679118	     12.17259186	     12.17259186	      7.89555885	      4.02188643	     -2.79689045	     41.40122970	    -11.66240820	      6.07613695	     66.28550792	     66.28550792	      5.93648318	    -18.34208110	      9.77949082	    -12.42374489	      5.22934439	      3.41311255	     15.78901443	    -16.23593956	     -2.11254730	     55.64072701	     44.99272172	      0.00000000	      0.00000000	      3.00501058	     -7.62946537	     -3.57050160	     39.70288824	     45.16700804	      0.00000000	      0.00000000
      1.84578571	     -6.52935058	     -6.16245925	      3.58229803	      1.05410444	      0.93102602	      0.50186808	     12.34619059	      4.59663032	    -16.58029643	     11.81622637	     11.81622637	      8.03270737	      3.86167039	     -3.18480722	     42.50475596	    -11.56818860	      5.75936412	     63.96906025	     63.96906025	      6.36282094	    -18.41417979	     10.98873409	    -12.44028147	      5.09544506	      4.08150411	     17.41726333	    -17.46173214	     -1.15762185	     58.79361405	     44.88625893	      0.00000000	      0.00000000	      3.46364902	     -7.09276537	     -3.90358466	     34.11106635	     45.31332432	      0.00000000	      0.00000000
      1.85771429	     -6.59249110	     -6.17136169	      3.74778826	      1.05213116	      0.93102828	      0.50240973	     11.77901490	      4.73028020	    -16.56787619	     11.45756884	     11.45756884	      8.28181019	      3.84196710	     -3.22229912	     43.40401463	    -11.47097804	      5.53696773	     61.35998543	     61.35998543	      6.53499022	    -18.49041800	     11.51417236	    -12.49027505	      5.00100485	      3.83441001	     19.98746793	    -17.48738282	     -1.51491395	     60.83395274	     44.85160758	      0.00000000	      0.00000000	      2.05823773	     -7.15846944	     -3.94384910	     32.42239377	     45.32395213	      0.00000000	      0.00000000
      1.86964286	     -6.63840270	     -6.13410308	      3.88505590	      1.05022248	      0.93101717	      0.50279109	     11.17408422	      4.81013664	    -16.51878710	     11.07344046	     11.07344046	      8.55053286	      3.89799607	     -3.26794751	     44.05330864	    -11.27889850	      5.35005115	     58.47097749	     58.47097749	      6.74681156	    -18.48874063	     12.07101474	    -12.56032358	      4.87420652	      3.76073224	     22.39622894	    -17.60159144	     -1.66890595	     62.87595593	     44.80754490	      0.00000000	      0.00000000	      0.87138059	     -7.19735870	     -3.96462640	     30.65214739	     45.33236467	      0.00000000	      0.00000000
      1.88157143	     -6.77381338	     -6.13462200	      3.95993825	      1.04836034	      0.93077346	      0.50307723	     10.70707542	      4.90592279	    -16.50296486	     10.76983240	     10.76983240	      8.83272789	      3.97511989	     -3.34043581	     44.61683261	    -11.10642597	      5.21694412	     55.36820897	     55.36820897	      6.89341916	    -18.38037391	     12.51174197	    -12.49900650	      4.75333623	      4.06844519	     24.69237709	    -18.04882910	     -1.89148346	     64.43004460	     44.77818464	      0.00000000	      0.00000000	     -0.25596698	     -7.16674096	     -3.96769149	     29.54704032	     45.32676444	      0.00000000	      0.00000000
      1.89350000	     -6.79435454	     -6.13277370	      4.13259453	      1.04670368	      0.93068545	      0.50291995	      9.95619076	      4.98920067	    -16.74189909	     10.19895194	     10.19895194	      9.09936118	      4.54702858	     -3.46260772	     44.80627223	    -10.78959939	      5.27306226	     51.95126849	     51.95126849	      7.04352643	    -18.17009039	     12.75583363	    -12.56970244	      4.77175699	      4.21559561	     26.21077785	    -18.87489151	     -1.26569955	     68.53490105	     44.66118621	      0.00000000	      0.00000000	     -0.62722459	     -6.97395572	     -4.17069653	     26.29200304	     45.43637383	      0.00000000	      0.00000000
      1.90542857	     -6.98190554	     -6.15243810	      4.14163516	      1.04493368	      0.93017313	      0.50285239	      9.49593189	      5.09327369	    -16.70535851	      9.81442926	      9.81442926	      9.35842190	      4.70029032	     -3.52129569	     45.05133640	    -10.56948229	      5.30861983	     48.47436265	     48.47436265	      7.21970273	    -17.74711220	     13.09812852	    -12.41052857	      4.72370738	      4.58889961	     28.63468951	    -19.12316500	     -1.63950025	     70.02091440	     44.64008659	      0.00000000	      0.00000000	     -1.78808754	     -7.02688550	     -4.20117435	     25.69008898	     45.42952133	      0.00000000	      0.00000000
      1.91735714	     -7.00060648	     -6.15454268	      4.21206053	      1.04356293	      0.92993316	      0.50252309	      8.65720336	      5.20981023	    -16.80388914	      9.10634008	      9.10634008	      9.60321176	      5.19542454	     -3.55337635	     44.83183919	    -10.26838599	      5.50396814	     44.74724417	     44.74724417	      7.35206720	    -17.21494208	     13.33010850	    -12.44270704	      4.71973763	      4.36061640	     30.91524711	    -18.81685159	     -1.76803663	     72.41815277	     44.58173852	      0.00000000	      0.00000000	     -3.18998721	     -7.14892056	     -4.21910931	     24.95473307	     45.42006214	      0.00000000	      0.00000000
